<svg width="39" height="20" viewBox="0 0 39 20" fill="none" xmlns="http://www.w3.org/2000/svg">
<path fill-rule="evenodd" clip-rule="evenodd" d="M2.4414 20C1.09305 20 0 18.9069 0 17.5586V13.45C0 12.0056 1.92659 11.5145 2.61804 12.7826C3.05085 13.5764 4.1131 13.7546 4.78122 13.1455L7.34101 10.8118L10.0504 7.57098C10.4277 7.11967 10.8831 6.7364 11.3917 6.44089C12.9704 5.52369 14.929 5.52821 16.4994 6.45952L16.6255 6.53428C17.0213 6.76902 17.3754 7.0678 17.6734 7.41846L19.0907 9.08615C20.0481 10.2126 21.7949 10.1878 22.7198 9.03449L23.0018 8.68283C23.7576 7.74042 25.1763 7.6953 25.9904 8.58778C26.9471 9.63643 28.6655 9.35802 29.2421 8.06097L30.2201 5.86088C30.8267 4.49624 32.7108 4.21673 33.298 5.58981C33.4029 5.83509 38.429 -0.916616 38.8243 0.105425C39.0736 0.750016 39.0085 8.495 38.9263 14.1277C38.8787 17.3921 36.2134 20 32.9487 20H2.4414Z" fill="url(#paint0_linear_836_3085)"/>
<defs>
<linearGradient id="paint0_linear_836_3085" x1="-15.8754" y1="-14.3883" x2="-15.8754" y2="21.8942" gradientUnits="userSpaceOnUse">
<stop stop-color="#1CD1A1"/>
<stop offset="1" stop-color="#E4EAF5"/>
</linearGradient>
</defs>
</svg>
