<svg width="18" height="17" viewBox="0 0 18 17" fill="none" xmlns="http://www.w3.org/2000/svg">
<path d="M3.66634 14.6003L4.93631 13.5843L4.94565 13.5771C5.21041 13.3653 5.34401 13.2584 5.49307 13.1823C5.6268 13.114 5.7694 13.0642 5.9165 13.034C6.08231 13 6.25503 13 6.60173 13H13.8359C14.7675 13 15.2338 13 15.59 12.8185C15.9036 12.6587 16.1587 12.4035 16.3185 12.0899C16.5 11.7337 16.5 11.2679 16.5 10.3363V3.9974C16.5 3.06581 16.5 2.59931 16.3185 2.24314C16.1587 1.92954 15.9031 1.67476 15.5895 1.51497C15.233 1.33331 14.7669 1.33331 13.8335 1.33331H4.16683C3.23341 1.33331 2.76635 1.33331 2.40983 1.51497C2.09623 1.67476 1.84144 1.92954 1.68166 2.24314C1.5 2.59966 1.5 3.06672 1.5 4.00014V13.5593C1.5 14.4474 1.5 14.8913 1.68205 15.1194C1.84037 15.3178 2.08036 15.4331 2.33415 15.4329C2.62596 15.4326 2.97287 15.155 3.66634 14.6003Z" stroke="#A7ADB8" stroke-width="1.5" stroke-linecap="round" stroke-linejoin="round"/>
</svg>
