<svg width="16" height="16" viewBox="0 0 16 16" fill="none" xmlns="http://www.w3.org/2000/svg">
<g clip-path="url(#clip0_640_3203)">
<path d="M5.99935 4.66663H3.99935C3.64573 4.66663 3.30659 4.8071 3.05654 5.05715C2.80649 5.3072 2.66602 5.64634 2.66602 5.99996V12C2.66602 12.3536 2.80649 12.6927 3.05654 12.9428C3.30659 13.1928 3.64573 13.3333 3.99935 13.3333H9.99935C10.353 13.3333 10.6921 13.1928 10.9422 12.9428C11.1922 12.6927 11.3327 12.3536 11.3327 12V9.99996" stroke="#464A54" stroke-linecap="round" stroke-linejoin="round"/>
<path d="M6 9.99995H8L13.6667 4.33328C13.9319 4.06806 14.0809 3.70835 14.0809 3.33328C14.0809 2.95821 13.9319 2.5985 13.6667 2.33328C13.4014 2.06806 13.0417 1.91907 12.6667 1.91907C12.2916 1.91907 11.9319 2.06806 11.6667 2.33328L6 7.99995V9.99995Z" stroke="#464A54" stroke-linecap="round" stroke-linejoin="round"/>
<path d="M10.666 3.33337L12.666 5.33337" stroke="#464A54" stroke-linecap="round" stroke-linejoin="round"/>
</g>
<defs>
<clipPath id="clip0_640_3203">
<rect width="16" height="16" fill="white"/>
</clipPath>
</defs>
</svg>
