<svg width="20" height="20" viewBox="0 0 20 20" fill="none" xmlns="http://www.w3.org/2000/svg">
<path d="M17.6492 5.84305L14.1578 2.35164C14.0562 2.25007 13.9357 2.16949 13.803 2.11452C13.6703 2.05954 13.528 2.03125 13.3844 2.03125C13.2407 2.03125 13.0985 2.05954 12.9658 2.11452C12.8331 2.16949 12.7125 2.25007 12.6109 2.35164L2.97656 11.9852C2.87479 12.0867 2.7941 12.2072 2.73912 12.3399C2.68415 12.4727 2.65599 12.615 2.65625 12.7587V16.2501C2.65625 16.5402 2.77149 16.8184 2.9766 17.0235C3.18172 17.2286 3.45992 17.3438 3.75 17.3438H7.24141C7.38508 17.3441 7.52739 17.3159 7.66013 17.261C7.79288 17.206 7.91343 17.1253 8.01485 17.0235L14.7461 10.2923L15.1063 11.7313L12.1688 14.6688C12.1247 14.7123 12.0896 14.764 12.0656 14.821C12.0416 14.878 12.0292 14.9393 12.029 15.0011C12.0287 15.063 12.0408 15.1243 12.0644 15.1815C12.088 15.2387 12.1227 15.2907 12.1664 15.3344C12.2102 15.3782 12.2622 15.4128 12.3195 15.4363C12.3767 15.4598 12.438 15.4718 12.4999 15.4715C12.5618 15.4712 12.623 15.4587 12.68 15.4346C12.737 15.4106 12.7887 15.3755 12.832 15.3313L15.957 12.2063C16.0143 12.1491 16.0558 12.078 16.0774 11.9999C16.0991 11.9219 16.1001 11.8396 16.0805 11.761L15.5195 9.51883L17.6492 7.38992C17.7508 7.28836 17.8314 7.16778 17.8863 7.03507C17.9413 6.90236 17.9696 6.76013 17.9696 6.61649C17.9696 6.47284 17.9413 6.33061 17.8863 6.1979C17.8314 6.06519 17.7508 5.94461 17.6492 5.84305ZM3.59375 16.2501V13.6321L6.36875 16.4063H3.75C3.70856 16.4063 3.66882 16.3899 3.63952 16.3606C3.61021 16.3313 3.59375 16.2915 3.59375 16.2501ZM7.5 16.2118L3.7875 12.5001L10.625 5.66336L14.3375 9.37508L7.5 16.2118ZM16.9859 6.72664L15 8.71258L11.2883 5.00008L13.2734 3.01492C13.288 3.0004 13.3052 2.98887 13.3242 2.98101C13.3431 2.97314 13.3635 2.9691 13.384 2.9691C13.4045 2.9691 13.4249 2.97314 13.4438 2.98101C13.4628 2.98887 13.48 3.0004 13.4945 3.01492L16.9859 6.50555C17.0005 6.52006 17.012 6.53729 17.0199 6.55626C17.0277 6.57523 17.0318 6.59556 17.0318 6.61609C17.0318 6.63663 17.0277 6.65696 17.0199 6.67593C17.012 6.6949 17.0005 6.71213 16.9859 6.72664Z" fill="#2C3342"/>
</svg>
