<svg width="18" height="16" viewBox="0 0 18 16" fill="none" xmlns="http://www.w3.org/2000/svg">
<path d="M2.33349 1.33337L15.6668 14.6667M12.7502 11.9633C11.623 12.5705 10.349 12.9999 9.00015 12.9999C6.05794 12.9999 3.47211 10.9566 1.98925 9.48238C1.59783 9.09325 1.40215 8.89871 1.27758 8.5168C1.18874 8.24444 1.18871 7.75551 1.27758 7.48316C1.40219 7.10126 1.59827 6.90625 1.99047 6.51643C2.73787 5.77355 3.76525 4.88637 4.97707 4.18901M15.2502 10.1946C15.5277 9.95048 15.7819 9.71032 16.01 9.4836L16.0124 9.48106C16.4029 9.09289 16.5987 8.89828 16.7231 8.51721C16.8119 8.24486 16.8118 7.75574 16.7229 7.48337C16.5984 7.1016 16.4025 6.9065 16.0113 6.51763C14.5284 5.04344 11.9424 3.00004 9.00015 3.00004C8.7189 3.00004 8.44091 3.01871 8.16682 3.05377M10.1026 9.25004C9.80878 9.50936 9.42284 9.66671 9.00015 9.66671C8.07968 9.66671 7.33349 8.92052 7.33349 8.00004C7.33349 7.55045 7.5115 7.14261 7.80089 6.84281" stroke="#BBC0C9" stroke-width="1.5" stroke-linecap="round" stroke-linejoin="round"/>
</svg>
