<svg width="18" height="12" viewBox="0 0 18 12" fill="none" xmlns="http://www.w3.org/2000/svg">
<path d="M1.98924 7.48234C3.47211 8.95653 6.05819 10.9999 9.0004 10.9999C11.9426 10.9999 14.5282 8.95653 16.0111 7.48234C16.4021 7.09355 16.5983 6.89849 16.7229 6.51676C16.8117 6.2444 16.8117 5.75561 16.7229 5.48325C16.5983 5.10151 16.4022 4.90642 16.0111 4.51759C14.5282 3.0434 11.9426 1 9.0004 1C6.05819 1 3.47211 3.0434 1.98924 4.51759C1.59786 4.90669 1.40215 5.10137 1.27757 5.48325C1.18873 5.75561 1.18873 6.2444 1.27757 6.51676C1.40215 6.89864 1.59786 7.09324 1.98924 7.48234Z" stroke="#BBC0C9" stroke-width="1.5" stroke-linecap="round" stroke-linejoin="round"/>
<path d="M7.33358 6C7.33358 6.92047 8.07977 7.66667 9.00024 7.66667C9.92072 7.66667 10.6669 6.92047 10.6669 6C10.6669 5.07953 9.92072 4.33333 9.00024 4.33333C8.07977 4.33333 7.33358 5.07953 7.33358 6Z" stroke="#BBC0C9" stroke-width="1.5" stroke-linecap="round" stroke-linejoin="round"/>
</svg>
