<svg width="18" height="16" viewBox="0 0 18 16" fill="none" xmlns="http://www.w3.org/2000/svg">
<path d="M9 11.3333V6.33331M9 6.33331L6.5 7.99998M9 6.33331L11.5 7.99998M1.5 2.99998V12C1.5 12.9334 1.5 13.3998 1.68166 13.7563C1.84144 14.0699 2.09623 14.3254 2.40983 14.4852C2.766 14.6666 3.23249 14.6666 4.16409 14.6666H13.8359C14.7675 14.6666 15.2333 14.6666 15.5895 14.4852C15.9031 14.3254 16.1587 14.0701 16.3185 13.7565C16.5002 13.3999 16.5002 12.9332 16.5002 11.9998L16.5002 5.66646C16.5002 4.73304 16.5002 4.26633 16.3185 3.90981C16.1587 3.59621 15.9033 3.34142 15.5897 3.18164C15.2331 2.99998 14.7668 2.99998 13.8333 2.99998H9M1.5 2.99998H9M1.5 2.99998C1.5 2.07951 2.24619 1.33331 3.16667 1.33331H6.22876C6.63642 1.33331 6.84072 1.33331 7.03253 1.37936C7.20259 1.42019 7.36488 1.4877 7.514 1.57908C7.68214 1.68212 7.82651 1.82649 8.11458 2.11456L9 2.99998" stroke="#A7ADB8" stroke-width="1.5" stroke-linecap="round" stroke-linejoin="round"/>
</svg>
