<svg width="40" height="40" viewBox="0 0 40 40" fill="none" xmlns="http://www.w3.org/2000/svg">
<rect width="40" height="40" rx="10" fill="#ECE1DB"/>
<rect x="2" y="2" width="36" height="36" rx="10" fill="#EBA767"/>
<path d="M20 23.3333V18.3333M20 18.3333L17.5 20M20 18.3333L22.5 20M12.5 15V24C12.5 24.9334 12.5 25.3998 12.6817 25.7563C12.8414 26.0699 13.0962 26.3254 13.4098 26.4852C13.766 26.6666 14.2325 26.6666 15.1641 26.6666H24.8359C25.7675 26.6666 26.2333 26.6666 26.5895 26.4852C26.9031 26.3254 27.1587 26.0701 27.3185 25.7565C27.5002 25.3999 27.5002 24.9332 27.5002 23.9998L27.5002 17.6665C27.5002 16.733 27.5002 16.2663 27.3185 15.9098C27.1587 15.5962 26.9033 15.3414 26.5897 15.1816C26.2331 15 25.7668 15 24.8333 15H20M12.5 15H20M12.5 15C12.5 14.0795 13.2462 13.3333 14.1667 13.3333H17.2288C17.6364 13.3333 17.8407 13.3333 18.0325 13.3794C18.2026 13.4202 18.3649 13.4877 18.514 13.5791C18.6821 13.6821 18.8265 13.8265 19.1146 14.1146L20 15" stroke="#1F1F1F" stroke-width="1.5" stroke-linecap="round" stroke-linejoin="round"/>
</svg>
