<svg width="16" height="16" viewBox="0 0 16 16" fill="none" xmlns="http://www.w3.org/2000/svg">
<path d="M13.4273 0.248047H2.5746C1.95782 0.248047 1.3663 0.493063 0.93017 0.929194C0.494039 1.36532 0.249023 1.95685 0.249023 2.57363V12.6511V13.4263C0.249023 14.0431 0.494039 14.6346 0.93017 15.0708C1.3663 15.5069 1.95782 15.7519 2.5746 15.7519H13.4273C14.0441 15.7519 14.6356 15.5069 15.0718 15.0708C15.5079 14.6346 15.7529 14.0431 15.7529 13.4263V2.57363C15.7529 1.95685 15.5079 1.36532 15.0718 0.929194C14.6356 0.493063 14.0441 0.248047 13.4273 0.248047ZM2.5746 1.79843H13.4273C13.6329 1.79843 13.8301 1.88011 13.9755 2.02548C14.1208 2.17086 14.2025 2.36803 14.2025 2.57363V12.3333L12.7451 10.876C12.3244 10.4565 11.7591 10.2139 11.1652 10.1981C10.5713 10.1822 9.99385 10.3942 9.55135 10.7907L7.31104 8.55037C6.87499 8.11487 6.28391 7.87025 5.66763 7.87025C5.05135 7.87025 4.46026 8.11487 4.02422 8.55037L1.79941 10.7829V2.57363C1.79941 2.36803 1.88108 2.17086 2.02646 2.02548C2.17184 1.88011 2.36901 1.79843 2.5746 1.79843ZM2.5746 14.2015C2.36901 14.2015 2.17184 14.1199 2.02646 13.9745C1.88108 13.8291 1.79941 13.6319 1.79941 13.4263V12.969L5.12499 9.6434C5.19706 9.57074 5.28279 9.51307 5.37726 9.47371C5.47172 9.43436 5.57304 9.41409 5.67538 9.41409C5.77771 9.41409 5.87904 9.43436 5.9735 9.47371C6.06797 9.51307 6.1537 9.57074 6.22577 9.6434L9.00096 12.4263C9.13684 12.5577 9.31603 12.6349 9.50484 12.6434H9.60561C9.79076 12.6292 9.96564 12.5527 10.1017 12.4263L10.5513 11.969C10.6234 11.8963 10.7092 11.8386 10.8036 11.7993C10.8981 11.7599 10.9994 11.7397 11.1017 11.7397C11.2041 11.7397 11.3054 11.7599 11.3999 11.7993C11.4943 11.8386 11.5801 11.8963 11.6521 11.969L13.7839 14.1008C13.6761 14.1655 13.553 14.2003 13.4273 14.2015H2.5746ZM10.5824 7.66665C11.027 7.66665 11.4616 7.5348 11.8313 7.28778C12.201 7.04076 12.4891 6.68967 12.6593 6.27889C12.8294 5.86811 12.874 5.4161 12.7872 4.98001C12.7005 4.54393 12.4864 4.14337 12.172 3.82897C11.8576 3.51457 11.457 3.30047 11.0209 3.21372C10.5848 3.12698 10.1328 3.1715 9.72206 3.34165C9.31128 3.5118 8.96018 3.79994 8.71316 4.16963C8.46614 4.53932 8.33429 4.97396 8.33429 5.41859C8.33429 6.01481 8.57114 6.58662 8.99274 7.00821C9.41433 7.4298 9.98613 7.66665 10.5824 7.66665ZM10.5824 4.56588C10.751 4.56588 10.9159 4.61589 11.0561 4.70958C11.1963 4.80328 11.3056 4.93646 11.3702 5.09227C11.4347 5.24808 11.4516 5.41954 11.4187 5.58495C11.3858 5.75036 11.3046 5.90229 11.1853 6.02155C11.0661 6.1408 10.9141 6.22202 10.7487 6.25492C10.5833 6.28782 10.4118 6.27093 10.256 6.20639C10.1002 6.14185 9.96705 6.03256 9.87335 5.89233C9.77965 5.7521 9.72964 5.58724 9.72964 5.41859C9.72964 5.19244 9.81948 4.97554 9.9794 4.81563C10.1393 4.65571 10.3562 4.56588 10.5824 4.56588Z" fill="#8D8D8D"/>
</svg>
