<svg width="24" height="24" viewBox="0 0 24 24" fill="none" xmlns="http://www.w3.org/2000/svg">
<path d="M21.4918 4.94801L16.823 5.51051C16.6683 5.52926 16.6027 5.71911 16.7129 5.82926L18.1027 7.21911L12.8058 12.516L10.4199 10.1324C10.2722 9.98473 10.0355 9.98707 9.89021 10.1324L2.35037 17.6746C2.31547 17.7098 2.2959 17.7574 2.2959 17.807C2.2959 17.8566 2.31547 17.9042 2.35037 17.9394L3.40505 18.9988C3.47771 19.0715 3.59724 19.0715 3.6699 18.9988L10.1551 12.516L12.5386 14.8996C12.6863 15.0449 12.923 15.0449 13.0683 14.8996L19.4293 8.54333L20.8191 9.93317C20.844 9.95795 20.8754 9.97525 20.9096 9.98309C20.9439 9.99093 20.9796 9.98901 21.0129 9.97753C21.0461 9.96605 21.0754 9.94549 21.0975 9.91817C21.1196 9.89086 21.1336 9.85789 21.1379 9.82301L21.7004 5.15426C21.7168 5.03473 21.6136 4.93161 21.4918 4.94801Z" fill="#2C3342"/>
</svg>
