<svg width="18" height="17" viewBox="0 0 18 17" fill="none" xmlns="http://www.w3.org/2000/svg">
<path d="M1.5 11.0002V12.8C1.5 13.9201 1.5 14.4798 1.68166 14.9076C1.84144 15.2839 2.09623 15.5905 2.40983 15.7822C2.766 16 3.23249 16 4.16409 16H16.5002M1.5 11.0002V1M1.5 11.0002L4.71116 7.78906L4.71382 7.78651C5.29472 7.20561 5.58573 6.91459 5.90129 6.79639C6.27406 6.65675 6.67559 6.67884 7.0363 6.8584C7.34208 7.01062 7.61021 7.33238 8.14647 7.97589L8.15185 7.98234C8.69643 8.63584 8.96944 8.96346 9.28014 9.11535C9.6478 9.29508 10.0571 9.31056 10.4339 9.16057C10.7534 9.0334 11.0452 8.72755 11.6286 8.11496L16.5 3" stroke="#A7ADB8" stroke-width="1.5" stroke-linecap="round" stroke-linejoin="round"/>
</svg>
