<svg width="7" height="7" viewBox="0 0 7 7" fill="none" xmlns="http://www.w3.org/2000/svg">
<path d="M3.8347 5.85706C3.8347 5.94582 3.79943 6.03095 3.73667 6.09372C3.6739 6.15649 3.58877 6.19175 3.5 6.19175C3.41123 6.19175 3.3261 6.15649 3.26333 6.09372C3.20057 6.03095 3.1653 5.94582 3.1653 5.85706L3.16766 3.83237L1.14298 3.83473C1.05421 3.83473 0.969079 3.79947 0.906311 3.7367C0.843543 3.67393 0.808281 3.5888 0.80828 3.50003C0.80828 3.41127 0.843543 3.32613 0.906311 3.26337C0.969079 3.2006 1.05421 3.16534 1.14298 3.16534L3.16766 3.16769L3.1653 1.14301C3.1653 1.05424 3.20057 0.969112 3.26333 0.906344C3.3261 0.843577 3.41123 0.808314 3.5 0.808314C3.58877 0.808314 3.6739 0.843577 3.73667 0.906344C3.79943 0.969112 3.8347 1.05424 3.8347 1.14301L3.83234 3.16769L5.85702 3.16534C5.94579 3.16534 6.03092 3.2006 6.09369 3.26337C6.15646 3.32613 6.19172 3.41127 6.19172 3.50003C6.19172 3.5888 6.15646 3.67393 6.09369 3.7367C6.03092 3.79947 5.94579 3.83473 5.85702 3.83473L3.83234 3.83237L3.8347 5.85706Z" fill="black" fill-opacity="0.8"/>
</svg>
