<svg width="40" height="40" viewBox="0 0 40 40" fill="none" xmlns="http://www.w3.org/2000/svg">
<rect width="40" height="40" rx="10" fill="#C5F1DF"/>
<rect x="2" y="2" width="36" height="36" rx="10" fill="#67EB94"/>
<path d="M25 19.9999V24.1666C25 25.5473 22.7614 26.6666 20 26.6666C17.2386 26.6666 15 25.5473 15 24.1666V19.9999M25 19.9999V15.8333M25 19.9999C25 21.3806 22.7614 22.4999 20 22.4999C17.2386 22.4999 15 21.3806 15 19.9999M25 15.8333C25 14.4525 22.7614 13.3333 20 13.3333C17.2386 13.3333 15 14.4525 15 15.8333M25 15.8333C25 17.214 22.7614 18.3333 20 18.3333C17.2386 18.3333 15 17.214 15 15.8333M15 19.9999V15.8333" stroke="#1F1F1F" stroke-width="1.5" stroke-linecap="round" stroke-linejoin="round"/>
</svg>
