<svg width="12" height="16" viewBox="0 0 12 16" fill="none" xmlns="http://www.w3.org/2000/svg">
<path d="M11 7.99998V12.1666C11 13.5474 8.76142 14.6666 6 14.6666C3.23858 14.6666 1 13.5474 1 12.1666V7.99998M11 7.99998V3.83331M11 7.99998C11 9.38069 8.76142 10.5 6 10.5C3.23858 10.5 1 9.38069 1 7.99998M11 3.83331C11 2.4526 8.76142 1.33331 6 1.33331C3.23858 1.33331 1 2.4526 1 3.83331M11 3.83331C11 5.21402 8.76142 6.33331 6 6.33331C3.23858 6.33331 1 5.21402 1 3.83331M1 7.99998V3.83331" stroke="#A7ADB8" stroke-width="1.5" stroke-linecap="round" stroke-linejoin="round"/>
</svg>
