<svg width="44" height="44" viewBox="0 0 44 44" fill="none" xmlns="http://www.w3.org/2000/svg">
<path d="M44 22C44 18.5282 43.1783 15.1056 41.6021 12.0122C40.026 8.91879 37.74 6.24232 34.9313 4.20163C32.1225 2.16094 28.8706 0.81397 25.4416 0.270856C22.0125 -0.272257 18.5035 0.0039027 15.2016 1.07676C11.8997 2.14961 8.8986 3.9887 6.44365 6.44365C3.9887 8.89861 2.14961 11.8997 1.07676 15.2016C0.00390224 18.5035 -0.272257 22.0125 0.270857 25.4416C0.813971 28.8706 2.16094 32.1225 4.20163 34.9313L22 22H44Z" fill="#8465FF"/>
<path d="M4.20639 34.9378C5.56498 36.8063 7.20939 38.4492 9.07918 39.806L22 22L4.20639 34.9378Z" fill="#5F49B8"/>
<path d="M44 22C44 26.0573 42.878 30.0356 40.7581 33.495C38.6382 36.9544 35.6029 39.7602 31.9878 41.6021C28.3727 43.4441 24.3187 44.2505 20.2739 43.9322C16.2291 43.6138 12.3511 42.1832 9.06873 39.7984L22 22H44Z" fill="#7959F7"/>
</svg>
